<?xml version="1.0" encoding="iso-8859-1"?>
<!-- Generator: Adobe Illustrator 19.0.0, SVG Export Plug-In . SVG Version: 6.00 Build 0)  -->
<svg version="1.1" id="Layer_1" xmlns="http://www.w3.org/2000/svg" xmlns:xlink="http://www.w3.org/1999/xlink" x="0px" y="0px"
	 viewBox="0 0 512.001 512.001" style="enable-background:new 0 0 512.001 512.001;" xml:space="preserve">
<path style="fill:#F2F2F2;" d="M443.676,511.467H68.324c-26.266,0-47.559-21.293-47.559-47.559V81.948
	c0-26.266,21.293-47.559,47.559-47.559h375.352c26.266,0,47.559,21.293,47.559,47.559v381.959
	C491.236,490.174,469.942,511.467,443.676,511.467z"/>
<path style="fill:#CCCCCC;" d="M479.341,495.334c1.587-1.786,3.045-3.706,4.36-5.75c0.055-0.086,0.111-0.171,0.166-0.258
	c0.291-0.459,0.576-0.923,0.852-1.394c0.026-0.046,0.053-0.092,0.079-0.138c1.18-2.027,2.212-4.148,3.087-6.351
	c0.029-0.073,0.058-0.144,0.085-0.216c2.101-5.368,3.266-11.205,3.266-17.318V81.948c0-26.266-21.293-47.559-47.559-47.559h-31.858
	c26.266,0,47.559,21.293,47.559,47.559v357.472c0,22.195-17.993,40.189-40.189,40.189H23.43
	c6.487,18.548,24.131,31.858,44.894,31.858h343.505c14.404,0.001,29.026,1.936,43.2-1.57
	C464.505,507.554,472.959,502.518,479.341,495.334z"/>
<path style="fill:#FB0125;" d="M443.676,34.388H68.324c-26.266,0-47.559,21.293-47.559,47.559v69.36h470.472V81.948
	C491.236,55.681,469.942,34.388,443.676,34.388z"/>
<path style="fill:#CC111E;" d="M459.378,81.948v69.36h31.858v-69.36c0-7.016-1.532-13.671-4.26-19.667
	c-0.307-0.677-0.631-1.343-0.968-2.003c-0.32-0.624-0.653-1.24-0.999-1.847c-1.356-2.379-2.902-4.637-4.634-6.737
	c-0.485-0.587-0.983-1.162-1.495-1.725c-0.762-0.838-1.562-1.639-2.381-2.421c-0.832-0.794-1.683-1.569-2.571-2.301
	c-0.587-0.485-1.187-0.955-1.797-1.412c-1.221-0.913-2.487-1.769-3.795-2.563c-0.654-0.397-1.318-0.779-1.991-1.145
	c-5.391-2.928-11.412-4.846-17.807-5.495c-1.599-0.162-3.222-0.245-4.863-0.245h-31.857
	C438.085,34.388,459.378,55.682,459.378,81.948z"/>
<polygon style="fill:#FB0125;" points="240.693,382.744 240.693,433.631 206.321,433.631 206.321,474.563 325.324,474.563 
	325.324,433.631 297.369,433.631 297.369,187.745 266.611,187.745 186.675,248.017 206.362,276.818 240.693,260.035 240.693,351.44 
	"/>
<g>
	<path style="fill:#CC111E;" d="M68.57,34.388v43.099c0,19.041,15.491,34.533,34.533,34.533c19.041,0,34.532-15.491,34.532-34.533
		V34.388H68.57z"/>
	<path style="fill:#CC111E;" d="M289.697,112.021c19.041,0,34.532-15.491,34.532-34.533V34.388h-69.064v43.099
		C255.164,96.529,270.655,112.021,289.697,112.021z"/>
	<path style="fill:#CC111E;" d="M196.4,112.021c19.042,0,34.533-15.491,34.533-34.533V34.388h-69.064v43.099
		C161.868,96.529,177.359,112.021,196.4,112.021z"/>
	<path style="fill:#CC111E;" d="M382.994,112.021c19.042,0,34.533-15.491,34.533-34.533V34.388h-69.064v43.099
		C348.462,96.529,363.953,112.021,382.994,112.021z"/>
</g>
<g>
	<path style="fill:#CCCCCC;" d="M103.103,101.661L103.103,101.661c-13.35,0-24.174-10.823-24.174-24.174V24.174
		C78.929,10.823,89.752,0,103.103,0l0,0c13.35,0,24.174,10.823,24.174,24.174v53.314
		C127.276,90.838,116.453,101.661,103.103,101.661z"/>
	<path style="fill:#CCCCCC;" d="M196.4,101.661L196.4,101.661c-13.35,0-24.174-10.823-24.174-24.174V24.174
		C172.226,10.823,183.049,0,196.4,0l0,0c13.35,0,24.174,10.823,24.174,24.174v53.314C220.573,90.838,209.75,101.661,196.4,101.661z"
		/>
	<path style="fill:#CCCCCC;" d="M289.697,101.661L289.697,101.661c-13.35,0-24.174-10.823-24.174-24.174V24.174
		C265.523,10.823,276.346,0,289.697,0l0,0c13.35,0,24.174,10.823,24.174,24.174v53.314
		C313.87,90.838,303.047,101.661,289.697,101.661z"/>
	<path style="fill:#CCCCCC;" d="M382.994,101.661L382.994,101.661c-13.35,0-24.174-10.823-24.174-24.174V24.174
		C358.82,10.823,369.644,0,382.994,0l0,0c13.35,0,24.174,10.823,24.174,24.174v53.314
		C407.168,90.838,396.344,101.661,382.994,101.661z"/>
</g>
<g>
	<path style="fill:#B3B3B3;" d="M382.994,0c-2.69,0-5.268,0.458-7.684,1.268v99.125c2.416,0.81,4.994,1.268,7.684,1.268
		c13.35,0,24.173-10.823,24.173-24.174V24.174C407.168,10.823,396.344,0,382.994,0z"/>
	<path style="fill:#B3B3B3;" d="M289.697,0c-2.69,0-5.268,0.458-7.684,1.268v99.125c2.416,0.81,4.994,1.268,7.684,1.268
		c13.35,0,24.173-10.823,24.173-24.174V24.174C313.87,10.823,303.047,0,289.697,0z"/>
	<path style="fill:#B3B3B3;" d="M196.4,0c-2.69,0-5.268,0.458-7.684,1.268v99.125c2.416,0.81,4.994,1.268,7.684,1.268
		c13.35,0,24.173-10.823,24.173-24.174V24.174C220.573,10.823,209.75,0,196.4,0z"/>
	<path style="fill:#B3B3B3;" d="M103.103,0c-2.69,0-5.268,0.458-7.684,1.268v99.125c2.416,0.81,4.994,1.268,7.684,1.268
		c13.35,0,24.173-10.823,24.173-24.174V24.174C127.276,10.823,116.453,0,103.103,0z"/>
</g>
<g>
</g>
<g>
</g>
<g>
</g>
<g>
</g>
<g>
</g>
<g>
</g>
<g>
</g>
<g>
</g>
<g>
</g>
<g>
</g>
<g>
</g>
<g>
</g>
<g>
</g>
<g>
</g>
<g>
</g>
</svg>
